<svg width="28" height="28" fill="none" xmlns="http://www.w3.org/2000/svg"><path d="M24.46 5.645c-.077-.232-.167-.297-.307-.352-.306-.124-.826.061-.826.061s-18.403 7.014-19.453 7.79c-.228.168-.303.264-.338.378-.181.554.385.799.385.799l4.743 1.64s.178.027.239-.016c1.08-.724 10.857-7.27 11.42-7.49.09-.028.154.003.137.068-.225.841-8.716 8.845-8.716 8.845s-.032.044-.053.093l-.011-.006-.444 4.99s-.186 1.529 1.258 0a41.478 41.478 0 012.494-2.42c1.63 1.195 3.386 2.516 4.142 3.206.379.347.7.402.96.393.717-.028.918-.866.918-.866s3.355-14.316 3.466-16.234c.011-.189.026-.306.026-.436 0-.18-.015-.36-.04-.446v.003z" stroke="#14161F" stroke-width="1.5" stroke-linejoin="round"/></svg>