<svg width="28" height="28" fill="none" xmlns="http://www.w3.org/2000/svg"><path clip-rule="evenodd" d="M23.466 15.902c.87.8 1.791 1.554 2.572 2.439.346.39.672.794.921 1.247.353.649.033 1.36-.582 1.4l-3.823-.003c-.987.077-1.773-.298-2.436-.934-.528-.507-1.02-1.049-1.53-1.572a3.533 3.533 0 00-.686-.579c-.522-.319-.975-.222-1.274.29-.303.523-.375 1.103-.403 1.684-.041.849-.313 1.07-1.217 1.112-1.934.084-3.768-.193-5.472-1.11-1.504-.81-2.668-1.954-3.682-3.248-1.975-2.523-3.488-5.292-4.846-8.142-.307-.642-.083-.986.667-.998 1.249-.023 2.498-.02 3.745-.002.507.008.844.281 1.038.733.675 1.563 1.501 3.051 2.538 4.431.277.368.559.733.958.993.443.287.781.193.99-.274a2.87 2.87 0 00.22-.93c.099-1.086.11-2.174-.06-3.257-.107-.677-.513-1.114-1.23-1.242-.364-.066-.31-.193-.134-.39.309-.339.6-.55 1.175-.55h4.32c.682.125.834.414.927 1.06l.003 4.525c-.008.25.133.99.61 1.154.38.12.634-.17.863-.398 1.035-1.035 1.773-2.258 2.433-3.524a22.98 22.98 0 00.79-1.714c.18-.428.463-.639.975-.63l4.16.004c.122 0 .249 0 .37.019.7.114.892.398.674 1.044-.34 1.01-1.005 1.855-1.653 2.7-.695.905-1.435 1.779-2.125 2.689-.63.833-.58 1.252.204 1.973z" stroke="#14161F" stroke-width="1.5"/></svg>