<svg width="28" height="28" viewBox="0 0 28 28" fill="none" xmlns="http://www.w3.org/2000/svg">
<path d="M24.4592 5.64525C24.3833 5.4132 24.2929 5.34823 24.1529 5.29254C23.8466 5.16878 23.3274 5.35442 23.3274 5.35442C23.3274 5.35442 4.92414 12.3684 3.87403 13.1449C3.6465 13.312 3.57066 13.4079 3.53566 13.5224C3.35481 14.0762 3.9207 14.3206 3.9207 14.3206L8.66371 15.9604C8.66371 15.9604 8.84165 15.9883 8.9029 15.9449C9.98219 15.221 19.7599 8.67421 20.3229 8.45454C20.4133 8.42669 20.4775 8.45763 20.46 8.5226C20.2354 9.36415 11.744 17.3681 11.744 17.3681C11.744 17.3681 11.712 17.4115 11.6915 17.461L11.6799 17.4548L11.2365 22.4453C11.2365 22.4453 11.0498 23.9737 12.4937 22.4453C13.5117 21.3655 14.4948 20.4652 14.9877 20.0258C16.6183 21.2201 18.3743 22.5412 19.1298 23.2311C19.509 23.5777 19.8299 23.6334 20.0895 23.6241C20.8071 23.5962 21.0084 22.7578 21.0084 22.7578C21.0084 22.7578 24.3629 8.44216 24.4737 6.52393C24.4854 6.3352 24.5 6.21763 24.5 6.08768C24.5 5.90823 24.4854 5.72879 24.4592 5.64216V5.64525Z" stroke="#14161F" stroke-width="1.5" stroke-linejoin="round"/>
</svg>
