<svg width="28" height="28" viewBox="0 0 28 28" fill="none" xmlns="http://www.w3.org/2000/svg">
<path fill-rule="evenodd" clip-rule="evenodd" d="M23.4664 15.9025C24.3368 16.7027 25.2572 17.4561 26.0385 18.3408C26.3837 18.7317 26.7102 19.135 26.959 19.5879C27.3122 20.2369 26.9921 20.9479 26.3769 20.9871L22.554 20.9855C21.5672 21.062 20.7809 20.6871 20.1177 20.0509C19.5904 19.5443 19.0975 19.0022 18.5884 18.4785C18.3813 18.2628 18.1622 18.0611 17.9018 17.9003C17.3796 17.5814 16.9266 17.6782 16.6281 18.1908C16.3245 18.7129 16.2532 19.2927 16.2252 19.8741C16.1836 20.7228 15.9118 20.9448 15.0079 20.9856C13.0739 21.07 11.2398 20.7931 9.53635 19.8757C8.03202 19.0663 6.86786 17.9219 5.85436 16.628C3.8792 14.1052 2.36645 11.3357 1.00821 8.48643C0.701207 7.84428 0.925457 7.50016 1.67479 7.48775C2.92395 7.46451 4.17262 7.46734 5.42003 7.48618C5.92745 7.49419 6.26411 7.76748 6.45819 8.21919C7.13328 9.78242 7.95903 11.2701 8.99552 12.6504C9.27277 13.0177 9.55469 13.3835 9.95419 13.6428C10.397 13.9304 10.7354 13.8364 10.9443 13.3691C11.0772 13.0722 11.1354 12.7565 11.1634 12.4392C11.2627 11.3529 11.2746 10.2654 11.1035 9.18229C10.9974 8.50528 10.5911 8.06755 9.87477 7.93954C9.5096 7.87389 9.56435 7.74745 9.74019 7.55019C10.0489 7.21133 10.3393 7 10.9146 7H15.2352C15.9166 7.12526 16.0694 7.41448 16.162 8.05993L16.1654 12.5848C16.1573 12.8348 16.2983 13.5755 16.7743 13.7395C17.1555 13.8583 17.4094 13.569 17.6383 13.341C18.673 12.3062 19.4113 11.0827 20.0711 9.81674C20.3632 9.26019 20.6154 8.68205 20.8608 8.10344C21.0417 7.67529 21.3236 7.46443 21.8361 7.47205L25.9957 7.47684C26.1184 7.47684 26.2446 7.47684 26.3656 7.49561C27.0652 7.60963 27.2577 7.89415 27.0402 8.53952C26.7006 9.5506 26.0352 10.3948 25.3869 11.2403C24.6918 12.1453 23.9522 13.0188 23.2623 13.9286C22.6322 14.7617 22.6818 15.1806 23.4664 15.9025Z" stroke="#14161F" stroke-width="1.5"/>
</svg>
